# xmcd CD database file
#
# Track frame offsets:
#	150
#	23515
#	41634
#	64209
#	87940
#	110077
#	133552
#	166702
#	194677
#	219352
#	240684
#	262651
#	294171
#	318152
#	340437
#
# Disc length: 4579 seconds
#
# Revision: 0
# Processed by: cddbd v1.5.2PL0 Copyright (c) Steve Scherf et al.
# Submitted via: CDex 1.51
#
DISCID=cf11e10f
DTITLE=Jamey Aebersold - Miles of Modes 2
DYEAR=2007
DGENRE=Jazz
TTITLE0=4/4 and 3/4
TTITLE1=Melodic Minor
TTITLE2=Lydian the Beautiful
TTITLE3=Maiden Locrian-Lydian
TTITLE4=Phrygian
TTITLE5=Whole Tone Scales
TTITLE6=Mixture
TTITLE7=New Way
TTITLE8=Smooth as Silk
TTITLE9=Trane's Ride
TTITLE10=Reverse Miles
TTITLE11=Body and Soul
TTITLE12=PY
TTITLE13=In an Instant
TTITLE14=Tuning Notes
EXTD=YEAR: 2007
EXTT0=
EXTT1=
EXTT2=
EXTT3=
EXTT4=
EXTT5=
EXTT6=
EXTT7=
EXTT8=
EXTT9=
EXTT10=
EXTT11=
EXTT12=
EXTT13=
EXTT14=
PLAYORDER=
